<?xml version="1.0" encoding="UTF-8"?>
<svg width="1920" height="1080" version="1.1" viewBox="0 0 508 285.75" xmlns="http://www.w3.org/2000/svg" xmlns:cc="http://creativecommons.org/ns#" xmlns:dc="http://purl.org/dc/elements/1.1/" xmlns:rdf="http://www.w3.org/1999/02/22-rdf-syntax-ns#">
 <metadata>
  <rdf:RDF>
   <cc:Work rdf:about="">
    <dc:format>image/svg+xml</dc:format>
    <dc:type rdf:resource="http://purl.org/dc/dcmitype/StillImage"/>
    <dc:title/>
   </cc:Work>
  </rdf:RDF>
 </metadata>
 <rect width="508" height="285.75" fill="#fff" stroke-width=".27548"/>
 <g transform="matrix(.26458 0 0 .26458 228.68 -83.407)">
  <rect width="55.556" height="220" fill="#14274e"/>
  <rect x="55.556" width="55.556" height="220" fill="#394867"/>
  <rect x="111.11" width="55.556" height="220" fill="#9ba4b4"/>
  <rect x="166.67" width="55.556" height="220" fill="#f0f5ff"/>
  <rect x="222.22" width="55.556" height="220" fill="#6155a6"/>
  <rect x="277.78" width="55.556" height="220" fill="#a685e2"/>
  <rect x="333.33" width="55.556" height="220" fill="#ffabe1"/>
  <rect x="388.89" width="55.556" height="220" fill="#ffe6e6"/>
  <rect x="444.44" width="55.556" height="220" fill="#eec643"/>
  <text x="10" y="235" alignment-baseline="middle" font-family="Arial" font-size="6px">Exported from Coolors.co</text>
  <text x="490" y="235" alignment-baseline="middle" font-family="Arial" font-size="6px" text-anchor="end">https://coolors.co/14274e-394867-9ba4b4-f0f5ff-6155a6-a685e2-ffabe1-ffe6e6-eec643</text>
 </g>
 <g>
  <rect width="508" height="285.75" fill="#d6e2ff"/>
  <g transform="matrix(-.68466 0 0 1.1139 82.889 2.6937)" fill="#14274e">
   <ellipse cx="52.35" cy="64.634" rx="17.198" ry="7.5595"/>
   <ellipse cx="69.17" cy="56.696" rx="14.363" ry="7.5595"/>
   <ellipse cx="80.509" cy="67.28" rx="14.741" ry="5.2917"/>
   <ellipse cx="87.124" cy="54.429" rx="14.552" ry="9.0714"/>
   <ellipse cx="95.628" cy="64.067" rx="12.851" ry="4.3467"/>
  </g>
  <g transform="matrix(-.68466 0 0 1.1139 83.976 -.25358)" fill="#f0f5ff">
   <ellipse cx="52.35" cy="64.634" rx="17.198" ry="7.5595"/>
   <ellipse cx="69.17" cy="56.696" rx="14.363" ry="7.5595"/>
   <ellipse cx="80.509" cy="67.28" rx="14.741" ry="5.2917"/>
   <ellipse cx="87.124" cy="54.429" rx="14.552" ry="9.0714"/>
   <ellipse cx="95.628" cy="64.067" rx="12.851" ry="4.3467"/>
  </g>
  <circle transform="scale(1,-1)" cx="125.11" cy="-80.887" r="30.994" fill="#fafcff"/>
  <g transform="translate(15.119 37.42)" fill="#14274e">
   <ellipse cx="52.35" cy="64.634" rx="17.198" ry="7.5595"/>
   <ellipse cx="69.17" cy="56.696" rx="14.363" ry="7.5595"/>
   <ellipse cx="80.509" cy="67.28" rx="14.741" ry="5.2917"/>
   <ellipse cx="87.124" cy="54.429" rx="14.552" ry="9.0714"/>
   <ellipse cx="95.628" cy="64.067" rx="12.851" ry="4.3467"/>
  </g>
  <g transform="translate(13.532 34.774)" fill="#f0f5ff">
   <ellipse cx="52.35" cy="64.634" rx="17.198" ry="7.5595"/>
   <ellipse cx="69.17" cy="56.696" rx="14.363" ry="7.5595"/>
   <ellipse cx="80.509" cy="67.28" rx="14.741" ry="5.2917"/>
   <ellipse cx="87.124" cy="54.429" rx="14.552" ry="9.0714"/>
   <ellipse cx="95.628" cy="64.067" rx="12.851" ry="4.3467"/>
  </g>
  <g transform="matrix(1 0 0 .50633 279.7 141.28)" fill="#14274e">
   <ellipse cx="52.35" cy="64.634" rx="17.198" ry="7.5595"/>
   <ellipse cx="69.17" cy="56.696" rx="14.363" ry="7.5595"/>
   <ellipse cx="80.509" cy="67.28" rx="14.741" ry="5.2917"/>
   <ellipse cx="87.124" cy="54.429" rx="14.552" ry="9.0714"/>
   <ellipse cx="95.628" cy="64.067" rx="12.851" ry="4.3467"/>
  </g>
  <g transform="matrix(1 0 0 .50633 278.11 139.94)" fill="#f0f5ff">
   <ellipse cx="52.35" cy="64.634" rx="17.198" ry="7.5595"/>
   <ellipse cx="69.17" cy="56.696" rx="14.363" ry="7.5595"/>
   <ellipse cx="80.509" cy="67.28" rx="14.741" ry="5.2917"/>
   <ellipse cx="87.124" cy="54.429" rx="14.552" ry="9.0714"/>
   <ellipse cx="95.628" cy="64.067" rx="12.851" ry="4.3467"/>
  </g>
  <path d="m288.4 0s3.0238 35.53 75.595 34.018c72.571-1.5119 144.01 40.065 144.01 40.065l26.458-74.461-68.792-17.765-161.4 5.2917z" fill="#f0f5ff"/>
  <g transform="matrix(1 0 0 .50633 326.61 121.25)" fill="#14274e">
   <ellipse cx="52.35" cy="64.634" rx="17.198" ry="7.5595"/>
   <ellipse cx="69.17" cy="56.696" rx="14.363" ry="7.5595"/>
   <ellipse cx="80.509" cy="67.28" rx="14.741" ry="5.2917"/>
   <ellipse cx="87.124" cy="54.429" rx="14.552" ry="9.0714"/>
   <ellipse cx="95.628" cy="64.067" rx="12.851" ry="4.3467"/>
  </g>
  <g transform="matrix(1 0 0 .50633 325.02 119.91)" fill="#f0f5ff">
   <ellipse cx="52.35" cy="64.634" rx="17.198" ry="7.5595"/>
   <ellipse cx="69.17" cy="56.696" rx="14.363" ry="7.5595"/>
   <ellipse cx="80.509" cy="67.28" rx="14.741" ry="5.2917"/>
   <ellipse cx="87.124" cy="54.429" rx="14.552" ry="9.0714"/>
   <ellipse cx="95.628" cy="64.067" rx="12.851" ry="4.3467"/>
  </g>
  <g transform="translate(286.44 -28.112)" fill="#ffa0a0">
   <path d="m105.71 211.53-4.7196 19.131 9.0455 1e-5z"/>
   <rect x="105.09" y="222.42" width=".848" height="10.831"/>
  </g>
  <g transform="translate(7.9592 3.8241)" fill="#acc4ff">
   <path d="m508 182.12-23.057-27.592-24.946-20.411-30.994-2.2679-36.286 31.75-59.72 29.104-30.616 14.363-20.033 3.7798-12.473 11.339-19.655 5.6696-19.655 19.655-18.521 5.2917-24.19 8.6935 231.7 9.0714 109.61-18.899z"/>
   <path d="m105.71 211.53-4.7196 19.131 9.0455 1e-5z"/>
   <rect x="105.09" y="222.42" width=".848" height="10.831"/>
   <path d="m-76.234 209.02 19.873-23.938 21.502-17.708 26.715-1.9675 31.276 27.545 51.474 25.25 26.389 12.461 17.267 3.2792 10.751 9.8376 16.941 4.9188 16.941 17.052 15.964 4.5909 20.85 7.5422-199.71 7.8701-94.478-16.396z"/>
   <g transform="translate(-18.143 -6.2865)">
    <path d="m105.71 211.53-4.7196 19.131 9.0455 1e-5z"/>
    <rect x="105.09" y="222.42" width=".848" height="10.831"/>
   </g>
   <g transform="matrix(.95821 0 0 .58248 -22.59 90.018)">
    <path d="m105.71 211.53-4.7196 19.131 9.0455 1e-5z"/>
    <rect x="105.09" y="222.42" width=".848" height="10.831"/>
   </g>
   <g transform="translate(181.35 -19.817)">
    <path d="m105.71 211.53-4.7196 19.131 9.0455 1e-5z"/>
    <rect x="105.09" y="222.42" width=".848" height="10.831"/>
   </g>
   <g transform="translate(159.84 -8.4779)">
    <path d="m105.71 211.53-4.7196 19.131 9.0455 1e-5z"/>
    <rect x="105.09" y="222.42" width=".848" height="10.831"/>
   </g>
   <g transform="translate(168.88 -8.4779)">
    <path d="m105.71 211.53-4.7196 19.131 9.0455 1e-5z"/>
    <rect x="105.09" y="222.42" width=".848" height="10.831"/>
   </g>
   <g transform="translate(205.33 -27.81)">
    <path d="m105.71 211.53-4.7196 19.131 9.0455 1e-5z"/>
    <rect x="105.09" y="222.42" width=".848" height="10.831"/>
   </g>
   <g transform="translate(197.92 -24.635)">
    <path d="m105.71 211.53-4.7196 19.131 9.0455 1e-5z"/>
    <rect x="105.09" y="222.42" width=".848" height="10.831"/>
   </g>
   <g transform="translate(369.23 -83.317)">
    <path d="m105.71 211.53-4.7196 19.131 9.0455 1e-5z"/>
    <rect x="105.09" y="222.42" width=".848" height="10.831"/>
   </g>
   <g transform="translate(282.29 -62.13)">
    <path d="m105.71 211.53-4.7196 19.131 9.0455 1e-5z"/>
    <rect x="105.09" y="222.42" width=".848" height="10.831"/>
   </g>
   <g transform="translate(383.56 -67.901)">
    <path d="m105.71 211.53-4.7196 19.131 9.0455 1e-5z"/>
    <rect x="105.09" y="222.42" width=".848" height="10.831"/>
   </g>
   <g transform="translate(349.96 -96.546)">
    <path d="m105.71 211.53-4.7196 19.131 9.0455 1e-5z"/>
    <rect x="105.09" y="222.42" width=".848" height="10.831"/>
   </g>
  </g>
 </g>
 <g transform="translate(-415.55 9.6982)">
  <rect x="407.53" y="137.89" width="38.554" height="108.48" fill="#c7d7ff"/>
  <rect x="430.74" y="146.21" width="7.9375" height="8.5045" fill="#14274e"/>
  <rect x="438.68" y="146.21" width="1.9844" height="8.5045" fill="#f0f5ff"/>
  <rect x="414.07" y="146.21" width="7.9375" height="8.5045" fill="#14274e"/>
  <rect x="422.01" y="146.21" width="1.9844" height="8.5045" fill="#f0f5ff"/>
  <g transform="translate(0 55.563)">
   <rect x="430.74" y="146.21" width="7.9375" height="8.5045" fill="#14274e"/>
   <rect x="438.68" y="146.21" width="1.9844" height="8.5045" fill="#f0f5ff"/>
   <rect x="414.07" y="146.21" width="7.9375" height="8.5045" fill="#14274e"/>
   <rect x="422.01" y="146.21" width="1.9844" height="8.5045" fill="#f0f5ff"/>
  </g>
  <g transform="translate(0 18.521)">
   <rect x="430.74" y="146.21" width="7.9375" height="8.5045" fill="#14274e"/>
   <rect x="438.68" y="146.21" width="1.9844" height="8.5045" fill="#f0f5ff"/>
   <rect x="414.07" y="146.21" width="7.9375" height="8.5045" fill="#14274e"/>
   <rect x="422.01" y="146.21" width="1.9844" height="8.5045" fill="#f0f5ff"/>
  </g>
  <g transform="translate(0 37.042)">
   <rect x="430.74" y="146.21" width="7.9375" height="8.5045" fill="#14274e"/>
   <rect x="438.68" y="146.21" width="1.9844" height="8.5045" fill="#f0f5ff"/>
   <rect x="414.07" y="146.21" width="7.9375" height="8.5045" fill="#14274e"/>
   <rect x="422.01" y="146.21" width="1.9844" height="8.5045" fill="#f0f5ff"/>
  </g>
  <g transform="translate(0 74.083)">
   <rect x="430.74" y="146.21" width="7.9375" height="8.5045" fill="#14274e"/>
   <rect x="438.68" y="146.21" width="1.9844" height="8.5045" fill="#f0f5ff"/>
   <rect x="414.07" y="146.21" width="7.9375" height="8.5045" fill="#14274e"/>
   <rect x="422.01" y="146.21" width="1.9844" height="8.5045" fill="#f0f5ff"/>
  </g>
 </g>
 <g transform="translate(-20.215 .74756)">
  <rect transform="scale(-1,1)" x="-83.985" y="219.6" width="18.795" height="37.285" ry="0" fill="#f0f5ff"/>
  <path d="m74.178 194.59 9.8066 25.014-18.795 1e-5z" fill="#f0f5ff"/>
  <rect transform="scale(-1,1)" x="-65.19" y="219.6" width="18.795" height="37.285" fill="#d6e2ff"/>
  <path d="m74.178 194.59-19.169-1e-5 -8.6145 25.014h18.795z" fill="#14274e"/>
  <g transform="matrix(-.69064 0 0 1.2487 211.09 84.132)">
   <rect x="193.15" y="120.2" width="9.8274" height="18.143" fill="#14274e"/>
   <rect x="191.16" y="120.2" width="1.9844" height="18.143" fill="#9ba4b4"/>
  </g>
  <rect transform="scale(-1,1)" x="-49.583" y="225.2" width="1.1781" height="9.9112" fill="#f0f5ff"/>
  <rect transform="scale(-1,1)" x="-62.114" y="225.2" width="12.53" height="9.9112" fill="#14274e"/>
  <g transform="matrix(-1 0 0 1 300.31 108.97)">
   <g transform="translate(57.463 39.289)">
    <circle cx="166.7" cy="76.844" r="4.5357" fill="#9ba4b4"/>
    <circle cx="168.62" cy="76.863" r="4.5357" fill="#14274e"/>
   </g>
   <rect x="224.95" y="111.45" width=".92604" height="9.5059" fill="#f0f5ff"/>
   <rect x="219.6" y="115.86" width="11.084" height=".92604" fill="#f0f5ff"/>
  </g>
 </g>
 <g>
  <rect x="339.94" y="204.69" width="29.964" height="51.647" ry="0" fill="#ffdcdc"/>
  <path d="m355.58 170.04-15.634 34.649 29.964 2e-5z" fill="#ffdcdc"/>
  <rect x="369.91" y="204.69" width="29.964" height="51.647" fill="#ffbfbf"/>
  <path d="m355.58 170.04 30.561-1e-5 13.734 34.649h-29.964z" fill="#ff9595"/>
  <rect x="349.97" y="224.93" width="10.82" height="31.38" fill="#ff9595"/>
  <rect x="347.78" y="224.93" width="2.1849" height="31.38" fill="#bb747d"/>
  <rect x="394.79" y="212.44" width="1.8782" height="13.729" fill="#ffdcdc"/>
  <rect x="374.81" y="212.44" width="19.976" height="13.729" fill="#ff9595"/>
  <rect x="349.93" y="204.69" width="10.389" height="13.729" fill="#ff9595"/>
  <rect x="347.51" y="204.69" width="2.826" height="13.729" fill="#bb747d"/>
 </g>
 <g transform="matrix(1.2911 0 0 1 124.86 87.963)">
  <rect x="236.93" y="133.46" width="6.1477" height="8.5045" fill="#ff9595"/>
  <rect x="243.08" y="133.46" width="1.5369" height="8.5045" fill="#ffeded"/>
  <rect x="224.02" y="133.46" width="6.1477" height="8.5045" fill="#ff9595"/>
  <rect x="230.17" y="133.46" width="1.5369" height="8.5045" fill="#ffeded"/>
 </g>
 <g>
  <rect x="407.53" y="137.89" width="38.554" height="108.48" fill="#c7d7ff"/>
  <rect x="430.74" y="146.21" width="7.9375" height="8.5045" fill="#14274e"/>
  <rect x="438.68" y="146.21" width="1.9844" height="8.5045" fill="#f0f5ff"/>
  <rect x="414.07" y="146.21" width="7.9375" height="8.5045" fill="#14274e"/>
  <rect x="422.01" y="146.21" width="1.9844" height="8.5045" fill="#f0f5ff"/>
  <g transform="translate(0 55.563)">
   <rect x="430.74" y="146.21" width="7.9375" height="8.5045" fill="#14274e"/>
   <rect x="438.68" y="146.21" width="1.9844" height="8.5045" fill="#f0f5ff"/>
   <rect x="414.07" y="146.21" width="7.9375" height="8.5045" fill="#14274e"/>
   <rect x="422.01" y="146.21" width="1.9844" height="8.5045" fill="#f0f5ff"/>
  </g>
  <g transform="translate(0 18.521)">
   <rect x="430.74" y="146.21" width="7.9375" height="8.5045" fill="#14274e"/>
   <rect x="438.68" y="146.21" width="1.9844" height="8.5045" fill="#f0f5ff"/>
   <rect x="414.07" y="146.21" width="7.9375" height="8.5045" fill="#14274e"/>
   <rect x="422.01" y="146.21" width="1.9844" height="8.5045" fill="#f0f5ff"/>
  </g>
  <g transform="translate(0 37.042)">
   <rect x="430.74" y="146.21" width="7.9375" height="8.5045" fill="#14274e"/>
   <rect x="438.68" y="146.21" width="1.9844" height="8.5045" fill="#f0f5ff"/>
   <rect x="414.07" y="146.21" width="7.9375" height="8.5045" fill="#14274e"/>
   <rect x="422.01" y="146.21" width="1.9844" height="8.5045" fill="#f0f5ff"/>
  </g>
  <g transform="translate(0 74.083)">
   <rect x="430.74" y="146.21" width="7.9375" height="8.5045" fill="#14274e"/>
   <rect x="438.68" y="146.21" width="1.9844" height="8.5045" fill="#f0f5ff"/>
   <rect x="414.07" y="146.21" width="7.9375" height="8.5045" fill="#14274e"/>
   <rect x="422.01" y="146.21" width="1.9844" height="8.5045" fill="#f0f5ff"/>
  </g>
 </g>
 <g transform="matrix(1 0 0 .60282 96.19 124.76)">
  <rect x="384.18" y="143.41" width="18.795" height="37.285" ry="0" fill="#f0f5ff"/>
  <path d="m393.99 118.4-9.8066 25.014 18.795 1e-5z" fill="#f0f5ff"/>
  <rect x="402.98" y="143.41" width="18.795" height="37.285" fill="#d6e2ff"/>
  <path d="m393.99 118.4 19.169-1e-5 8.6145 25.014h-18.795z" fill="#14274e"/>
  <g transform="matrix(.69064 0 0 1.2487 257.07 7.9375)">
   <rect x="193.15" y="120.2" width="9.8274" height="18.143" fill="#14274e"/>
   <rect x="191.16" y="120.2" width="1.9844" height="18.143" fill="#9ba4b4"/>
  </g>
  <rect x="418.58" y="149" width="1.1781" height="9.9112" fill="#f0f5ff"/>
  <rect x="406.05" y="149" width="12.53" height="9.9112" fill="#14274e"/>
  <rect x="390.45" y="143.41" width="6.5166" height="9.9112" fill="#14274e"/>
  <rect x="388.93" y="143.41" width="1.7726" height="9.9112" fill="#9ba4b4"/>
 </g>
 <g transform="matrix(1.1195 0 0 1.1093 259.3 125.58)">
  <path d="m190.18 47.92-12.664 52.542 24.272 2e-5z" fill="#f0f5ff"/>
  <rect x="188.5" y="77.847" width="2.2755" height="29.746" fill="#9ba4b4"/>
 </g>
 <g transform="translate(44.724 76.572)">
  <rect x="384.18" y="143.41" width="18.795" height="37.285" ry="0" fill="#f0f5ff"/>
  <path d="m393.99 118.4-9.8066 25.014 18.795 1e-5z" fill="#f0f5ff"/>
  <rect x="402.98" y="143.41" width="18.795" height="37.285" fill="#d6e2ff"/>
  <path d="m393.99 118.4 19.169-1e-5 8.6145 25.014h-18.795z" fill="#14274e"/>
  <g transform="matrix(.69064 0 0 1.2487 257.07 7.9375)">
   <rect x="193.15" y="120.2" width="9.8274" height="18.143" fill="#14274e"/>
   <rect x="191.16" y="120.2" width="1.9844" height="18.143" fill="#9ba4b4"/>
  </g>
  <rect x="418.58" y="149" width="1.1781" height="9.9112" fill="#f0f5ff"/>
  <rect x="406.05" y="149" width="12.53" height="9.9112" fill="#14274e"/>
  <rect x="390.45" y="143.41" width="6.5166" height="9.9112" fill="#14274e"/>
  <rect x="388.93" y="143.41" width="1.7726" height="9.9112" fill="#9ba4b4"/>
 </g>
 <g transform="translate(101.27 106.6)">
  <rect x="279.32" y="125.87" width="27.214" height="29.86" ry="0" fill="#f0f5ff"/>
  <path d="m293.52 105.83-14.199 20.033 27.214 1e-5z" fill="#f0f5ff"/>
  <rect x="306.54" y="125.87" width="27.214" height="29.86" fill="#d6e2ff"/>
  <path d="m293.52 105.83 27.756-1e-5 12.473 20.033h-27.214z" fill="#14274e"/>
  <g transform="translate(95.282 17.373)">
   <rect x="193.15" y="120.2" width="9.8274" height="18.143" fill="#14274e"/>
   <rect x="191.16" y="120.2" width="1.9844" height="18.143" fill="#9ba4b4"/>
  </g>
  <rect x="329.14" y="130.35" width="1.7058" height="7.9375" fill="#f0f5ff"/>
  <rect x="310.99" y="130.35" width="18.143" height="7.9375" fill="#14274e"/>
  <g transform="translate(66.713 7.1815)">
   <g transform="translate(57.463 39.289)">
    <circle cx="166.7" cy="76.844" r="4.5357" fill="#9ba4b4"/>
    <circle cx="168.62" cy="76.863" r="4.5357" fill="#14274e"/>
   </g>
   <rect x="224.95" y="111.45" width=".92604" height="9.5059" fill="#f0f5ff"/>
   <rect x="219.6" y="115.86" width="11.084" height=".92604" fill="#f0f5ff"/>
  </g>
 </g>
 <circle cx="22.679" cy="239.64" r=".049953" fill="#14274e" stroke="#000" stroke-width=".26458"/>
 <g fill="#14274e">
  <rect y="256.65" width="508" height="29.104"/>
  <path d="m0 260.35v-12.473l6.0476-5.2917 7.1815 2.6458 3.0238 2.2679 3.7798 6.8036 13.607 2.2679-0.37798 5.2917z"/>
  <path d="m508 233.74-14.846-10.735-9.1361 2.7408-8.2225 7.5373-5.4817 11.649-10.278 7.0805-5.7101 3.426-6.6237 1.8272-5.2532 6.6237 75.601 1.8272z"/>
 </g>
 <g>
  <path d="m74.589 228.54-6.6719 25.014 12.787 1e-5z" fill="#f0f5ff"/>
  <rect x="73.703" y="242.79" width="1.1988" height="14.161" fill="#9ba4b4"/>
  <path d="m87.011 234.96-4.7196 19.131 9.0455 1e-5z" fill="#f0f5ff"/>
  <rect x="86.385" y="245.85" width=".848" height="10.831" fill="#9ba4b4"/>
  <rect x="489.01" y="210.5" width="1.2027" height="6.6817" fill="#f0f5ff"/>
  <rect x="485.12" y="213.86" width="8.1517" height=".93544" fill="#f0f5ff"/>
 </g>
</svg>
